<svg width="16" height="16" viewBox="0 0 16 16" fill="none" xmlns="http://www.w3.org/2000/svg">
  <path d="M3.48 5.48049C3.43356 5.52686 3.39671 5.58194 3.37157 5.64257C3.34644 5.7032 3.3335 5.76819 3.3335 5.83382C3.3335 5.89945 3.34644 5.96444 3.37157 6.02507C3.39671 6.0857 3.43356 6.14078 3.48 6.18715L7.64667 10.3538C7.69304 10.4003 7.74812 10.4371 7.80875 10.4622C7.86938 10.4874 7.93437 10.5003 8 10.5003C8.06563 10.5003 8.13062 10.4874 8.19125 10.4622C8.25188 10.4371 8.30696 10.4003 8.35333 10.3538L12.52 6.18715C12.5664 6.14075 12.6032 6.08567 12.6283 6.02504C12.6534 5.96442 12.6664 5.89944 12.6664 5.83382C12.6664 5.7682 12.6534 5.70322 12.6283 5.6426C12.6032 5.58197 12.5664 5.52689 12.52 5.48049C12.4736 5.43409 12.4185 5.39728 12.3579 5.37217C12.2973 5.34706 12.2323 5.33413 12.1667 5.33413C12.101 5.33413 12.0361 5.34706 11.9754 5.37217C11.9148 5.39728 11.8597 5.43409 11.8133 5.48049L8 9.29315L4.18667 5.48049C4.14029 5.43404 4.08521 5.3972 4.02458 5.37206C3.96395 5.34692 3.89897 5.33398 3.83333 5.33398C3.7677 5.33398 3.70271 5.34692 3.64208 5.37206C3.58145 5.3972 3.52638 5.43404 3.48 5.48049Z" fill="currentColor" />
</svg>
