<svg xmlns="http://www.w3.org/2000/svg" viewBox="0 0 19.86 19.84" width="20">
  <path d="m19.55,17.93l-4.26-4.26c1.16-1.46,1.79-3.28,1.76-5.14C17.05,3.82,13.23,0,8.52,0,3.82,0,0,3.82,0,8.52s3.82,8.52,8.52,8.52c1.86-.02,3.66-.64,5.14-1.76l4.26,4.26c.41.39,1.06.39,1.47,0,.48-.32.61-.98.28-1.46-.04-.06-.08-.11-.13-.16ZM2.2,8.52c-.03-3.46,2.76-6.3,6.22-6.32.03,0,.07,0,.1,0,3.46-.03,6.29,2.76,6.32,6.22,0,.03,0,.06,0,.09.03,3.46-2.76,6.29-6.22,6.32-.03,0-.06,0-.09,0-3.46.03-6.3-2.76-6.32-6.22,0-.03,0-.06,0-.09Z"/>
</svg>