<svg id="Layer_1" data-name="Layer 1" xmlns="http://www.w3.org/2000/svg" viewBox="0 0 12.01 15.35">
  <g>
    <g id="Path_1729" data-name="Path 1729">
      <path class="cls-1" d="m9.51,15.35H2.5c-1.38,0-2.5-1.12-2.5-2.5V4.51h12.01v8.34c0,1.38-1.12,2.5-2.5,2.5ZM1.5,6.01v6.84c0,.55.45,1,1,1h7.01c.55,0,1-.45,1-1v-6.84H1.5Z"/>
    </g>
    <g id="Path_1730" data-name="Path 1730">
      <path class="cls-1" d="m9.68,6.01h-1.5v-2.34c0-1.2-.97-2.17-2.17-2.17s-2.17.97-2.17,2.17v2.34h-1.5v-2.34C2.34,1.65,3.98,0,6.01,0s3.67,1.65,3.67,3.67v2.34Z"/>
    </g>
  </g>
</svg>